<?xml version="1.0" standalone="no"?>
<!DOCTYPE svg PUBLIC "-//W3C//DTD SVG 20010904//EN"
 "http://www.w3.org/TR/2001/REC-SVG-20010904/DTD/svg10.dtd">
<svg version="1.0" xmlns="http://www.w3.org/2000/svg"
 width="1254.000000pt" height="1254.000000pt" viewBox="0 0 1254.000000 1254.000000"
 preserveAspectRatio="xMidYMid meet">

<g transform="translate(0.000000,1254.000000) scale(0.100000,-0.100000)"
fill="#000000" stroke="none">
<path d="M7082 10439 c-72 -35 -114 -83 -142 -157 -33 -87 -22 -198 25 -265
l16 -22 -3 24 c-3 22 19 42 60 57 1 1 -4 16 -12 35 l-15 34 -2 -30 c-1 -16 -1
-34 0 -38 1 -5 -9 -1 -21 7 -26 19 -42 21 -32 4 4 -7 3 -8 -4 -4 -7 4 -12 18
-12 31 0 20 7 25 36 31 23 4 39 14 44 28 7 17 9 14 9 -17 1 -44 19 -84 52
-112 18 -16 16 -11 -7 19 -24 32 -29 49 -29 94 0 51 3 57 39 88 45 39 91 51
139 35 35 -12 76 -49 96 -88 10 -20 12 -139 1 -124 -3 5 -21 -8 -40 -27 l-35
-36 35 25 c19 13 37 24 40 25 3 0 18 6 33 12 16 7 32 12 38 12 5 0 20 10 35
23 14 12 34 25 45 29 17 7 18 4 13 -20 -4 -15 -10 -34 -15 -42 -7 -13 -8 -12
-9 2 0 9 -3 19 -7 21 -5 3 -8 -17 -8 -44 0 -27 1 -49 2 -49 7 0 35 67 48 115
25 98 -6 204 -82 277 -88 85 -218 104 -331 47z m265 -311 c-2 -13 -4 -5 -4 17
-1 22 1 32 4 23 2 -10 2 -28 0 -40z m-379 -83 c-3 -3 -9 2 -12 12 -6 14 -5 15
5 6 7 -7 10 -15 7 -18z"/>
<path d="M6205 10189 c-243 -23 -557 -91 -800 -174 -506 -171 -977 -450 -1310
-777 l-130 -127 206 -1 206 0 7 41 c19 120 113 203 231 202 67 0 116 -18 158
-57 l28 -26 72 66 c290 266 737 519 1182 669 190 63 450 122 674 153 72 9 76
27 9 35 -73 9 -424 6 -533 -4z m-1140 -579 c15 -17 16 -24 7 -45 -15 -32 -57
-53 -79 -39 -9 6 -22 19 -30 30 -12 18 -11 24 8 47 25 33 68 36 94 7z"/>
<path d="M7030 9946 c17 -21 70 -49 78 -42 3 3 1 6 -5 6 -6 0 -28 12 -49 26
-21 15 -32 19 -24 10z"/>
<path d="M7354 9924 c-18 -14 -18 -15 4 -4 12 6 22 13 22 15 0 8 -5 6 -26 -11z"/>
<path d="M7198 9883 c12 -2 32 -2 45 0 12 2 2 4 -23 4 -25 0 -35 -2 -22 -4z"/>
<path d="M8265 9863 c-105 -27 -129 -189 -35 -238 71 -37 164 -3 188 69 22 69
-12 139 -81 165 -30 11 -39 12 -72 4z m67 -90 c38 -34 10 -103 -42 -103 -31 0
-60 30 -60 64 0 48 64 73 102 39z"/>
<path d="M6318 9805 c-35 -20 -48 -44 -48 -90 0 -50 15 -74 57 -91 66 -28 143
21 143 92 0 72 -89 124 -152 89z"/>
<path d="M5910 9565 c-26 -27 -30 -35 -16 -35 9 0 28 -12 42 -27 29 -31 52
-24 68 20 8 22 6 31 -14 52 -31 33 -40 32 -80 -10z"/>
<path d="M7723 9535 c-78 -33 -110 -161 -60 -236 71 -107 232 -97 288 17 38
79 11 172 -61 213 -44 24 -119 27 -167 6z m132 -77 c15 -14 28 -38 32 -60 5
-33 2 -41 -30 -73 -45 -45 -86 -47 -128 -6 -84 85 36 217 126 139z m52 -85
c-3 -10 -5 -4 -5 12 0 17 2 24 5 18 2 -7 2 -21 0 -30z m-88 -99 c2 -2 -10 -4
-27 -4 -33 0 -51 -14 -30 -24 7 -3 2 -3 -12 0 -14 4 -29 11 -35 17 -7 7 -6 8
3 3 7 -4 15 -1 18 8 4 11 15 13 42 9 20 -3 39 -7 41 -9z"/>
<path d="M5621 9456 l-23 -24 28 -4 c25 -3 29 -7 27 -30 -3 -39 14 -35 34 8
17 35 17 36 -6 55 -30 24 -33 24 -60 -5z"/>
<path d="M6000 9294 c-90 -6 -377 -42 -480 -60 -135 -25 -246 -52 -370 -91
l-115 -36 58 -13 c32 -8 69 -20 83 -27 22 -12 36 -11 104 9 92 27 265 54 341
54 70 0 169 -16 235 -39 166 -56 282 -174 561 -576 143 -205 162 -228 218
-260 l40 -24 200 19 c523 51 1050 80 1449 80 126 0 227 3 224 6 -3 3 -93 14
-199 24 -107 10 -176 19 -154 20 22 1 48 3 58 5 11 2 106 7 213 11 106 4 191
11 188 15 -3 5 -76 66 -162 135 -345 276 -671 462 -889 508 -289 61 -968 73
-1389 25 l-91 -11 -44 31 c-49 35 -175 81 -220 81 -16 0 -29 4 -29 8 0 11 208
29 500 44 247 12 642 -1 847 -28 59 -7 113 -13 118 -13 45 3 -258 58 -465 84
-121 16 -678 28 -830 19z"/>
<path d="M3261 9232 c-63 -34 -71 -64 -71 -267 0 -156 3 -185 18 -214 20 -37
73 -71 110 -71 40 0 91 28 112 62 18 30 20 50 20 229 0 186 -1 198 -22 224
-23 30 -74 55 -110 55 -13 0 -39 -8 -57 -18z"/>
<path d="M4561 9233 c-71 -37 -76 -53 -79 -256 -3 -206 3 -232 68 -275 62 -42
144 -15 183 59 16 30 18 54 14 217 -4 146 -8 187 -21 207 -37 57 -109 77 -165
48z"/>
<path d="M8301 9093 c-43 -22 -71 -67 -71 -118 0 -52 11 -69 39 -60 17 5 21
14 21 45 0 30 6 43 26 59 15 12 34 21 44 21 15 0 48 -29 64 -57 11 -20 -22
-72 -51 -79 -25 -7 -25 -8 -8 -15 11 -4 14 -8 7 -8 -17 -1 -43 -27 -35 -35 12
-11 64 -6 93 9 39 20 60 63 60 123 0 58 -25 97 -76 118 -43 18 -71 17 -113 -3z"/>
<path d="M2898 8989 c-158 -23 -292 -145 -334 -304 -11 -40 -14 -257 -14
-1106 0 -1149 -2 -1095 56 -1210 28 -56 100 -130 160 -165 91 -53 84 -53 814
-55 374 -2 682 -1 684 2 3 2 -14 34 -37 69 -22 36 -53 94 -68 130 l-28 65
-588 5 c-572 5 -589 6 -628 26 -22 11 -53 40 -70 63 l-30 43 -3 884 -2 884
1155 0 1155 0 1 -380 c1 -209 2 -385 3 -392 0 -6 37 -26 81 -43 44 -17 101
-44 128 -59 l47 -28 0 614 c0 672 0 675 -60 768 -87 136 -232 207 -405 198
l-65 -3 -4 -122 c-4 -138 -23 -195 -80 -238 -105 -80 -229 -72 -319 21 -50 52
-67 112 -67 241 l0 104 -412 -3 -413 -3 -5 -130 c-6 -146 -14 -169 -79 -228
-113 -102 -292 -63 -357 77 -21 44 -24 66 -24 162 l0 111 -46 7 c-54 7 -69 7
-146 -5z"/>
<path d="M5445 8969 c-101 -13 -100 -12 -60 -65 85 -111 104 -184 109 -408 1
-91 6 -169 9 -173 4 -3 7 0 7 7 0 26 53 83 94 100 81 36 280 51 339 26 60 -26
128 -123 131 -189 l1 -32 -287 0 -288 0 0 -28 c0 -16 9 -41 20 -57 38 -53 77
-60 379 -70 152 -5 314 -12 360 -14 91 -6 121 3 121 35 0 26 -127 273 -219
424 -97 160 -157 240 -240 317 -79 75 -162 113 -275 128 -82 11 -106 11 -201
-1z"/>
<path d="M8700 8508 c61 -51 159 -127 178 -137 20 -11 22 -10 22 16 0 39 -33
89 -71 108 -41 22 -151 33 -129 13z"/>
<path d="M8775 8330 c3 -5 23 -10 43 -10 80 0 392 -46 607 -90 544 -110 1013
-304 1219 -503 48 -46 50 -49 31 -60 -13 -8 -84 -13 -197 -15 l-178 -4 0 -57
c0 -75 25 -167 56 -208 34 -45 100 -63 238 -64 127 0 119 -9 -32 -33 -197 -30
-239 -79 -260 -296 l-8 -85 -12 103 c-18 149 -46 206 -122 241 -29 13 -97 16
-427 21 -215 3 -394 8 -397 11 -4 3 96 9 221 13 608 18 651 27 698 140 16 38
36 204 25 211 -3 1 -297 -3 -655 -10 -761 -15 -750 -16 -1000 71 -525 184
-780 255 -1130 314 -180 30 -363 49 -525 55 -80 3 -172 8 -205 10 -111 9 -42
-13 80 -25 414 -41 903 -159 1325 -320 504 -193 514 -197 358 -160 -167 39
-748 120 -868 120 -58 0 -74 -4 -91 -21 -28 -28 -22 -48 49 -166 93 -155 186
-238 307 -272 49 -14 310 -58 630 -106 149 -23 252 -44 275 -55 19 -10 56 -40
81 -67 44 -46 219 -277 219 -289 0 -3 -28 -3 -62 0 -35 3 -241 11 -459 18
-435 13 -457 11 -521 -42 -37 -31 -104 -127 -161 -232 l-36 -66 57 -6 c113
-12 991 -28 1147 -22 582 25 1488 115 1565 156 10 6 30 25 44 43 28 37 102
191 136 285 13 34 25 61 27 58 2 -2 -5 -62 -17 -132 -41 -256 -72 -337 -137
-362 -60 -24 -603 -81 -1248 -133 -250 -20 -312 -21 -845 -15 -316 4 -591 9
-610 12 l-35 5 45 -25 c63 -34 130 -95 175 -160 l38 -56 411 0 c424 0 719 14
1241 60 326 29 867 89 950 106 100 20 190 67 221 114 63 95 35 197 -74 266 -2
2 6 58 19 126 20 104 23 156 24 338 0 184 -3 221 -17 254 l-18 38 -40 -36
c-22 -20 -43 -36 -46 -36 -4 0 -28 20 -55 45 l-47 44 44 26 c113 66 105 168
-23 306 -146 155 -434 316 -772 431 -265 90 -650 167 -986 198 -144 13 -298
13 -290 0z m-670 -810 c110 -18 130 -24 168 -53 42 -32 52 -35 238 -61 247
-34 446 -64 483 -72 l29 -6 -24 -19 c-13 -10 -44 -29 -69 -43 l-45 -24 -185
20 c-102 11 -258 21 -347 23 -209 3 -229 12 -321 135 -80 106 -88 120 -67 120
8 0 71 -9 140 -20z"/>
<path d="M3795 7985 c-25 -24 -25 -27 -25 -189 l0 -165 26 -20 c24 -19 40 -21
175 -21 140 0 149 1 175 23 l26 23 0 164 0 164 -26 23 c-26 22 -35 23 -177 23
-146 0 -151 -1 -174 -25z"/>
<path d="M4463 8000 c-38 -15 -43 -42 -43 -209 l0 -160 26 -20 c24 -19 40 -21
174 -21 134 0 150 2 174 21 l26 20 0 169 0 169 -26 20 c-24 19 -40 21 -168 20
-77 0 -151 -4 -163 -9z"/>
<path d="M3122 7788 c-3 -198 -13 -188 196 -188 86 0 162 4 168 8 24 16 34 54
33 129 -1 57 -3 70 -9 48 -4 -16 -8 -48 -9 -70 -1 -39 -1 -39 -17 -17 -8 12
-22 22 -30 22 -8 0 -17 7 -20 15 -4 8 -14 15 -23 15 -9 0 -21 4 -26 8 -23 19
-95 32 -168 29 -88 -4 -84 -8 -90 93 -2 30 -4 -11 -5 -92z"/>
<path d="M1813 7890 c-205 -5 -212 -6 -237 -29 -33 -31 -41 -72 -21 -110 28
-55 53 -61 272 -61 109 0 216 -5 238 -10 109 -25 139 -174 48 -236 -40 -27
-97 -30 -793 -45 -576 -12 -555 -9 -555 -89 0 -83 -35 -78 670 -91 687 -12
667 -10 713 -79 35 -51 26 -110 -22 -159 l-36 -36 -207 -7 c-646 -25 -599 -21
-627 -47 -35 -33 -36 -92 -3 -125 22 -22 33 -24 188 -30 259 -10 973 -25 977
-21 3 2 6 270 9 594 l4 591 -203 -2 c-112 -1 -298 -5 -415 -8z"/>
<path d="M6767 7550 c-149 -26 -286 -158 -364 -351 -13 -33 -22 -63 -20 -66 3
-2 28 2 56 11 191 56 396 3 536 -138 90 -91 165 -249 165 -346 l0 -37 70 -7
c91 -8 152 -29 223 -78 l58 -39 -7 63 c-31 297 -101 524 -213 695 -146 221
-324 324 -504 293z m166 -196 c58 -30 98 -66 143 -130 24 -34 44 -64 44 -68 0
-4 -25 18 -56 48 -65 64 -137 103 -218 116 -59 9 -138 0 -176 -20 -28 -15 -25
2 3 19 78 50 199 66 260 35z"/>
<path d="M4752 7420 c-233 -61 -432 -250 -513 -488 -31 -91 -33 -106 -34 -232
0 -156 17 -227 88 -365 61 -118 192 -248 307 -303 122 -59 195 -76 325 -76
176 0 316 50 449 160 120 99 211 241 252 394 27 99 25 282 -4 384 -59 207
-203 383 -389 475 -141 70 -330 90 -481 51z m283 -165 c106 -23 188 -67 270
-149 86 -85 128 -157 155 -262 90 -351 -152 -692 -505 -711 -311 -17 -565 212
-583 524 -9 175 39 311 155 434 137 145 319 204 508 164z"/>
<path d="M5153 6953 c-7 -2 -79 -80 -159 -171 -81 -92 -152 -168 -158 -170 -6
-1 -42 29 -81 68 -57 57 -75 70 -101 70 -36 0 -84 -47 -84 -82 0 -20 200 -237
248 -268 29 -19 41 -11 117 77 33 38 120 138 193 222 112 130 132 158 132 186
0 52 -58 88 -107 68z"/>
<path d="M3142 7367 c-21 -22 -22 -33 -22 -185 0 -215 -12 -202 200 -202 213
0 200 -13 200 205 0 218 12 205 -198 205 -153 0 -159 -1 -180 -23z"/>
<path d="M3790 7370 c-18 -18 -20 -33 -20 -185 0 -219 -13 -206 203 -203 l162
3 20 40 c17 35 19 59 18 185 -2 190 9 180 -204 180 -146 0 -161 -2 -179 -20z"/>
<path d="M5702 7083 c-17 -3 -22 -9 -16 -21 34 -81 65 -192 73 -264 20 -176
-22 -378 -112 -537 -49 -86 -177 -226 -249 -273 l-51 -33 74 -7 c229 -21 1019
-58 1248 -58 l74 0 -7 40 c-39 243 -268 376 -500 290 l-51 -19 25 21 c14 11
54 35 90 52 60 29 73 31 170 31 95 0 110 -3 163 -28 116 -57 204 -181 228
-319 l11 -68 267 1 c146 1 338 5 426 9 158 6 159 6 55 10 -58 2 -90 5 -72 7
19 3 32 10 32 19 0 8 5 14 10 14 6 0 3 11 -7 24 -10 13 -21 22 -24 20 -9 -5
-79 24 -80 34 0 4 -2 17 -3 29 -1 12 1 20 6 17 29 -18 28 130 -1 196 l-12 25
6 -25 c11 -48 16 -186 6 -165 -5 11 -10 16 -10 10 -1 -7 -4 -7 -9 0 -13 18
-50 34 -92 41 -36 6 -45 14 -41 37 0 4 -3 7 -9 7 -5 0 -10 9 -10 20 0 11 -4
20 -10 20 -5 0 -10 7 -10 15 0 9 -6 12 -15 8 -10 -3 -15 0 -13 8 2 8 -4 14
-12 14 -8 0 -18 4 -21 8 -3 5 -12 9 -20 10 -21 4 -39 17 -39 30 0 6 7 2 16 -9
14 -18 15 -18 4 4 -7 15 -17 21 -26 18 -8 -3 -33 0 -55 7 -28 8 -39 18 -40 32
0 11 -2 28 -4 37 -2 10 1 20 6 24 5 3 7 9 4 14 -3 5 14 11 37 14 85 11 92 13
48 14 -25 1 -76 -9 -113 -22 l-68 -23 5 24 c8 32 14 71 9 55 -11 -31 -86 20
-109 76 -8 17 -20 32 -27 32 -13 0 -28 10 -87 57 -15 12 -30 20 -34 16 -3 -3
-6 -2 -6 4 0 5 -11 15 -24 21 -31 14 -108 72 -158 120 -35 34 -96 71 -140 88
-10 3 -18 10 -18 15 0 4 -12 7 -27 6 -16 -1 -28 -8 -28 -14 0 -6 -4 -15 -9
-20 -5 -5 -6 -3 -2 5 14 24 -10 12 -40 -20 -45 -48 -74 -94 -94 -146 -11 -28
-20 -41 -23 -32 -3 8 -10 35 -17 60 -43 161 -194 286 -357 295 -37 2 -78 1
-91 -2z"/>
<path d="M6528 7023 c7 -3 16 -2 19 1 4 3 -2 6 -13 5 -11 0 -14 -3 -6 -6z"/>
<path d="M6613 7023 c9 -2 25 -2 35 0 9 3 1 5 -18 5 -19 0 -27 -2 -17 -5z"/>
<path d="M6478 7013 c6 -2 18 -2 25 0 6 3 1 5 -13 5 -14 0 -19 -2 -12 -5z"/>
<path d="M6374 6974 c-18 -14 -18 -14 6 -3 31 14 36 19 24 19 -6 0 -19 -7 -30
-16z"/>
<path d="M6900 6876 c0 -2 8 -10 18 -17 15 -13 16 -12 3 4 -13 16 -21 21 -21
13z"/>
<path d="M6940 6820 c6 -11 13 -20 16 -20 2 0 0 9 -6 20 -6 11 -13 20 -16 20
-2 0 0 -9 6 -20z"/>
<path d="M7290 6460 c8 -5 20 -10 25 -10 6 0 3 5 -5 10 -8 5 -19 10 -25 10 -5
0 -3 -5 5 -10z"/>
<path d="M7630 6160 c-8 -5 -10 -10 -5 -10 6 0 17 5 25 10 8 5 11 10 5 10 -5
0 -17 -5 -25 -10z"/>
<path d="M7562 6120 c-23 -17 -42 -34 -42 -40 0 -5 10 1 23 13 12 12 33 30 47
39 14 9 22 17 19 17 -3 1 -25 -13 -47 -29z"/>
<path d="M8243 6019 c3 -8 11 -31 18 -51 11 -36 15 -38 53 -38 56 1 256 36
267 47 6 6 -45 16 -128 27 -76 9 -155 19 -177 22 -30 5 -37 3 -33 -7z"/>
<path d="M7908 5913 c12 -2 30 -2 40 0 9 3 -1 5 -23 4 -22 0 -30 -2 -17 -4z"/>
<path d="M8714 5858 c-17 -18 -66 -76 -109 -128 l-79 -95 285 -3 284 -2 183
122 c100 68 182 126 182 130 0 5 -161 8 -358 8 l-358 0 -30 -32z"/>
<path d="M2143 5478 c-8 -11 -473 -1704 -473 -1722 0 -4 307 -5 682 -4 l681 3
44 169 c24 92 41 171 38 175 -4 3 -205 7 -448 7 -297 1 -442 5 -445 12 -2 6
31 134 73 284 185 662 295 1071 289 1079 -9 15 -430 11 -441 -3z"/>
<path d="M8439 5438 c-14 -24 -86 -137 -159 -253 -73 -115 -233 -370 -355
-565 -122 -195 -293 -467 -379 -604 -86 -137 -156 -253 -156 -258 0 -4 100 -7
227 -6 l226 3 86 141 c47 78 92 149 100 158 12 15 49 16 365 14 l351 -3 15
-155 15 -155 214 -3 c118 -1 218 1 223 6 4 4 1 66 -7 138 -23 212 -165 1567
-165 1581 0 2 -129 3 -288 3 l-287 0 -26 -42z m221 -380 c0 -13 14 -162 30
-333 16 -170 28 -311 26 -312 -2 -2 -109 -2 -239 -1 l-235 3 109 180 c60 99
151 249 202 332 51 84 95 153 100 153 4 0 7 -10 7 -22z"/>
<path d="M11141 5413 c-36 -124 -61 -219 -61 -231 0 -9 53 -12 205 -12 184 0
205 2 214 18 9 17 81 269 81 284 0 4 -94 8 -210 8 l-209 0 -20 -67z"/>
<path d="M11646 4933 c-86 -302 -197 -687 -246 -858 -50 -170 -90 -313 -90
-318 0 -4 93 -6 208 -5 l207 3 22 70 c12 39 76 255 143 480 248 836 340 1150
340 1165 0 7 -71 10 -213 10 l-214 0 -157 -547z"/>
<path d="M966 5209 c-33 -26 -36 -79 -6 -109 19 -19 33 -20 419 -20 l400 0 16
56 c28 97 65 89 -396 92 -398 2 -407 2 -433 -19z"/>
<path d="M4140 5074 c-167 -10 -496 -47 -507 -57 -5 -6 -63 -291 -59 -294 2
-2 57 4 122 13 169 25 496 26 540 2 45 -25 59 -65 44 -126 l-11 -50 -252 -5
c-176 -4 -273 -10 -322 -21 -99 -22 -225 -87 -283 -145 -147 -147 -188 -415
-82 -543 17 -21 58 -51 93 -67 171 -84 427 -57 611 64 74 48 70 52 45 -45 -5
-19 -9 -38 -9 -42 0 -5 90 -8 199 -8 l200 0 14 53 c52 182 144 520 187 682 60
228 66 316 26 401 -42 90 -135 150 -272 172 -71 12 -209 20 -284 16z m50 -781
c0 -32 -33 -139 -50 -163 -38 -53 -182 -110 -280 -110 -113 0 -165 41 -157
123 11 123 107 165 375 165 93 0 112 -3 112 -15z"/>
<path d="M6751 5059 c-80 -8 -304 -38 -308 -42 -7 -8 -58 -289 -52 -292 4 -3
53 2 110 10 144 22 442 31 496 16 59 -16 83 -45 82 -95 -1 -23 -4 -52 -8 -66
l-7 -25 -249 -6 c-276 -8 -351 -20 -473 -80 -119 -58 -214 -182 -247 -320 -59
-253 57 -409 316 -426 145 -10 311 34 424 112 27 18 51 33 52 32 1 -2 -4 -28
-11 -60 -7 -31 -11 -59 -8 -62 3 -3 92 -5 198 -5 l193 0 15 53 c8 28 36 129
61 222 26 94 76 276 112 405 36 129 68 265 70 301 14 173 -79 283 -272 324
-77 16 -346 18 -494 4z m235 -783 c-18 -93 -37 -135 -78 -170 -111 -95 -336
-114 -393 -33 -38 54 -3 150 70 193 51 30 126 40 299 43 l108 1 -6 -34z"/>
<path d="M9870 5054 c-112 -29 -199 -81 -291 -173 -153 -154 -241 -351 -255
-576 -17 -248 91 -415 301 -471 140 -38 332 2 454 94 l34 25 -7 -27 c-58 -232
-180 -324 -415 -314 -87 4 -125 11 -209 40 l-104 35 -69 -139 c-38 -76 -69
-142 -69 -147 0 -13 119 -59 214 -82 102 -25 332 -36 433 -20 259 40 437 167
544 386 36 74 68 171 124 370 42 149 114 403 160 565 46 162 88 314 95 338 6
24 14 50 17 58 5 12 -24 14 -203 12 l-208 -3 -19 -61 -18 -62 -46 49 c-75 81
-180 119 -323 118 -47 0 -110 -7 -140 -15z m292 -314 c48 -14 97 -55 114 -97
13 -30 11 -45 -21 -172 -19 -77 -40 -152 -45 -168 -15 -38 -86 -110 -135 -135
-44 -23 -150 -35 -209 -24 -45 9 -92 48 -112 95 -34 78 6 265 80 377 73 109
204 158 328 124z"/>
<path d="M4865 5008 c6 -26 92 -573 131 -833 14 -93 34 -224 45 -290 10 -66
19 -123 19 -127 0 -5 100 -8 223 -8 l222 1 99 152 c281 430 513 788 601 927
54 85 105 165 113 178 l14 22 -219 0 -219 0 -244 -411 c-134 -225 -249 -417
-255 -426 -10 -13 -13 -5 -18 43 -30 288 -79 735 -83 762 l-5 32 -215 0 -214
0 5 -22z"/>
<path d="M11032 5013 c-5 -10 -31 -94 -57 -188 -25 -93 -103 -367 -171 -607
-68 -240 -124 -444 -124 -452 0 -14 25 -16 199 -16 151 0 201 3 209 13 13 15
347 1169 360 1240 l4 27 -206 0 c-185 0 -206 -2 -214 -17z"/>
<path d="M560 4772 c-40 -4 -59 -17 -71 -49 -10 -28 7 -80 31 -93 20 -11 1087
-14 1114 -4 9 3 23 31 32 61 27 94 66 88 -544 88 -290 0 -543 -1 -562 -3z"/>
<path d="M875 4308 c-51 -27 -60 -84 -20 -123 l24 -25 314 0 c353 0 329 -5
352 80 22 83 34 80 -333 80 -210 -1 -324 -4 -337 -12z"/>
<path d="M2245 3196 c-203 -50 -323 -252 -271 -456 83 -328 523 -377 673 -75
31 61 46 141 40 206 -6 68 -49 168 -95 220 -37 42 -115 86 -186 105 -61 16
-94 16 -161 0z m3 -148 c7 -7 12 -19 12 -27 0 -13 11 -15 64 -13 53 3 65 7 69
23 7 25 37 24 44 -1 4 -14 14 -20 32 -20 48 0 51 -12 51 -191 0 -153 -2 -169
-19 -181 -26 -18 -334 -17 -356 2 -12 10 -15 42 -15 179 0 180 3 191 52 191
20 0 28 5 28 18 0 32 17 41 38 20z"/>
<path d="M2245 2980 c-3 -5 -12 -7 -20 -3 -8 3 -15 0 -15 -6 0 -17 47 -13 54
4 6 16 -9 21 -19 5z"/>
<path d="M2390 2978 c0 -21 29 -31 46 -17 21 17 17 31 -4 20 -13 -7 -23 -6
-30 1 -9 9 -12 8 -12 -4z"/>
<path d="M2172 2788 l3 -113 150 0 150 0 3 113 3 112 -156 0 -156 0 3 -112z
m178 53 c0 -17 -3 -32 -7 -34 -16 -9 -53 13 -53 31 0 25 8 32 37 32 19 0 23
-5 23 -29z m90 14 c18 -21 5 -45 -24 -45 -30 0 -40 13 -31 40 7 24 37 26 55 5z
m-175 -20 c0 -26 -49 -34 -59 -10 -9 25 3 37 32 33 19 -2 27 -9 27 -23z m85
-90 c0 -30 -3 -35 -24 -35 -31 0 -38 12 -30 45 4 18 13 25 30 25 21 0 24 -5
24 -35z m95 10 c0 -25 -37 -32 -54 -11 -18 21 -4 38 27 34 19 -2 27 -9 27 -23z
m-179 -1 c-3 -9 -6 -22 -6 -30 0 -8 -10 -14 -25 -14 -21 0 -25 5 -25 30 0 27
3 30 31 30 24 0 30 -3 25 -16z"/>
<path d="M8944 3042 c-27 -3 -32 -8 -37 -35 -12 -64 -68 -332 -73 -349 -4 -15
1 -18 30 -18 23 0 38 6 45 17 9 17 10 17 28 0 24 -21 84 -22 123 -2 83 43 115
188 54 249 -31 30 -63 36 -110 20 -21 -7 -39 -12 -40 -11 -2 1 3 30 11 65 7
34 10 63 6 65 -3 1 -20 1 -37 -1z m108 -189 c45 -41 1 -153 -61 -153 -43 0
-65 31 -58 81 10 74 74 113 119 72z"/>
<path d="M9460 3036 c-19 -23 -8 -61 18 -64 30 -4 52 14 52 43 0 34 -47 48
-70 21z"/>
<path d="M4409 2970 c-7 -38 -15 -70 -17 -70 -3 0 -14 7 -24 16 -24 22 -89 21
-129 -2 -18 -11 -43 -39 -57 -64 -19 -37 -23 -56 -20 -104 4 -49 9 -63 32 -83
32 -27 106 -32 126 -8 7 8 16 15 21 15 5 0 6 -7 3 -15 -5 -12 2 -15 29 -15
l36 0 21 93 c11 50 31 140 44 200 l23 107 -38 0 -37 0 -13 -70z m-51 -112 c7
-7 12 -31 12 -54 0 -83 -85 -138 -124 -82 -26 37 -18 85 22 131 17 20 72 23
90 5z"/>
<path d="M6370 3035 c0 -3 -18 -88 -40 -190 -22 -102 -40 -189 -40 -195 0 -5
16 -10 35 -10 19 0 35 2 35 5 0 3 18 87 40 187 22 101 40 189 40 196 0 7 -14
12 -35 12 -19 0 -35 -2 -35 -5z"/>
<path d="M9605 3028 c-3 -7 -20 -89 -40 -182 -19 -94 -38 -178 -41 -189 -5
-16 -1 -18 32 -15 44 3 38 -13 89 238 14 69 28 133 31 143 4 14 -1 17 -31 17
-19 0 -38 -6 -40 -12z"/>
<path d="M9745 3018 c-18 -77 -75 -355 -75 -365 0 -14 56 -18 64 -5 3 5 14 48
25 96 22 101 41 128 85 124 26 -3 32 -8 34 -33 3 -26 -8 -100 -25 -172 -5 -21
-1 -23 30 -23 l35 0 17 73 c29 128 31 171 6 196 -27 27 -96 29 -124 4 -20 -18
-20 -17 -14 22 4 22 9 55 13 73 6 31 6 32 -30 32 -29 0 -37 -4 -41 -22z"/>
<path d="M2974 2998 c-9 -18 -54 -99 -100 -179 -109 -191 -106 -181 -58 -177
33 3 42 8 59 40 l20 38 82 0 82 0 3 -37 c3 -36 5 -38 41 -41 45 -4 44 -14 12
182 -38 228 -30 206 -81 206 -39 0 -45 -3 -60 -32z m62 -140 l7 -68 -52 0
c-29 0 -51 3 -49 8 36 76 74 140 80 134 4 -4 10 -37 14 -74z"/>
<path d="M3304 2929 c-44 -12 -90 -63 -104 -114 -21 -76 6 -137 69 -156 32
-10 44 -9 72 5 40 20 45 16 25 -22 -22 -43 -65 -55 -122 -36 -43 14 -47 14
-60 -3 -18 -25 -17 -30 8 -44 95 -51 219 -13 247 75 13 39 61 263 61 282 0 9
-11 14 -35 14 -24 0 -35 -5 -35 -15 0 -19 -9 -19 -29 -1 -23 19 -61 25 -97 15z
m92 -84 c22 -33 10 -78 -28 -110 -34 -29 -46 -31 -76 -9 -29 20 -30 81 -1 118
28 36 82 36 105 1z"/>
<path d="M3655 2930 c-76 -17 -125 -84 -125 -170 0 -46 4 -56 34 -86 30 -30
40 -34 88 -34 35 0 64 7 86 20 36 22 39 32 17 50 -12 10 -21 10 -47 -1 -56
-23 -108 -8 -108 32 0 16 11 19 98 21 l97 3 3 47 c2 26 -2 56 -8 68 -22 41
-81 63 -135 50z m66 -71 c32 -32 19 -44 -49 -47 -71 -3 -82 11 -36 47 34 27
58 27 85 0z"/>
<path d="M4007 2930 c-16 -5 -35 -14 -43 -21 -11 -9 -14 -8 -14 5 0 13 -7 17
-32 14 l-33 -3 -27 -120 c-36 -163 -36 -165 6 -165 l34 0 17 90 c20 104 42
140 86 140 18 0 32 -6 36 -16 6 -15 -9 -139 -23 -191 -6 -21 -3 -23 29 -23
l35 0 15 68 c37 163 34 196 -19 218 -18 8 -35 14 -36 13 -2 0 -16 -5 -31 -9z"/>
<path d="M9355 2933 c-11 -3 -31 -15 -44 -26 l-24 -22 6 23 c5 21 3 23 -31 20
l-36 -3 -28 -130 c-15 -71 -28 -136 -28 -142 0 -8 13 -13 34 -13 l33 0 18 86
c15 70 24 89 47 110 16 13 40 24 53 24 22 0 35 21 35 63 0 18 -1 18 -35 10z"/>
<path d="M4572 2910 c-91 -56 -108 -201 -29 -251 49 -31 137 -23 178 17 40 37
59 82 59 140 0 39 -5 51 -34 80 -30 30 -40 34 -87 34 -36 0 -65 -7 -87 -20z
m124 -65 c36 -54 -9 -145 -71 -145 -43 0 -55 16 -55 72 0 39 5 54 25 73 33 34
79 33 101 0z"/>
<path d="M4855 2908 c-2 -13 -11 -54 -20 -91 -20 -93 -19 -133 5 -157 25 -25
90 -27 125 -4 23 15 25 15 25 0 0 -13 7 -17 32 -14 l32 3 27 130 c16 72 28
136 29 143 0 7 -13 12 -34 12 l-33 0 -18 -82 c-26 -122 -43 -148 -95 -148 -41
0 -42 37 -5 208 5 19 1 22 -30 22 -28 0 -36 -4 -40 -22z"/>
<path d="M6518 2918 c-30 -11 -33 -19 -18 -49 9 -15 15 -17 30 -9 28 15 86 12
100 -5 22 -27 7 -39 -47 -36 -58 3 -116 -18 -132 -47 -20 -37 -14 -99 11 -116
29 -20 97 -20 126 -1 20 14 21 14 16 0 -5 -12 1 -15 29 -15 35 0 36 0 47 58 6
31 16 73 21 92 15 58 11 89 -16 115 -20 21 -33 25 -82 24 -32 0 -70 -5 -85
-11z m100 -169 c-8 -57 -108 -79 -108 -24 0 30 24 44 73 45 34 0 38 -3 35 -21z"/>
<path d="M6764 2903 c3 -15 13 -73 21 -128 23 -140 20 -135 65 -135 l38 0 76
138 c42 76 76 142 76 145 0 4 -16 7 -35 7 -34 0 -36 -2 -86 -102 -29 -57 -54
-98 -55 -93 -2 6 -10 51 -17 100 l-12 90 -39 3 c-37 3 -38 2 -32 -25z"/>
<path d="M7113 2909 c-78 -50 -97 -185 -34 -241 26 -23 40 -28 84 -28 33 0 63
7 83 19 93 56 106 213 22 257 -40 21 -117 18 -155 -7z m121 -55 c31 -31 11
-132 -29 -148 -53 -20 -95 8 -95 65 0 74 80 128 124 83z"/>
<path d="M7382 2828 c-27 -126 -27 -129 -1 -162 16 -21 29 -26 63 -26 23 0 52
7 64 16 20 14 22 14 22 -1 0 -12 8 -16 32 -13 l33 3 27 125 c36 163 36 162 -4
158 -32 -3 -33 -4 -55 -98 -15 -68 -28 -100 -43 -112 -27 -22 -53 -23 -71 -2
-13 15 -9 54 17 182 6 31 6 32 -28 32 l-35 0 -21 -102z"/>
<path d="M9427 2863 c-9 -38 -21 -95 -27 -128 -6 -33 -14 -68 -17 -78 -4 -16
1 -18 33 -15 l38 3 28 135 c15 74 27 138 28 143 0 4 -15 7 -34 7 -34 0 -34 0
-49 -67z"/>
<path d="M10072 2909 c-44 -29 -72 -86 -72 -150 0 -45 4 -55 34 -85 30 -30 40
-34 88 -34 40 0 62 6 89 24 89 61 99 210 17 252 -41 21 -117 18 -156 -7z m122
-55 c31 -31 11 -132 -29 -148 -53 -20 -95 8 -95 65 0 74 80 128 124 83z"/>
<path d="M10341 2830 c-26 -124 -26 -131 0 -164 16 -21 29 -26 63 -26 23 0 52
7 64 16 20 14 22 14 22 -1 0 -12 8 -15 32 -13 36 3 33 -5 72 176 l24 112 -38
0 -38 0 -17 -92 c-19 -97 -44 -138 -83 -138 -47 0 -50 31 -16 198 6 31 6 32
-28 32 l-35 0 -22 -100z"/>
<path d="M794 2823 l2 -38 494 0 495 0 3 38 3 37 -500 0 -499 0 2 -37z"/>
<path d="M10890 2820 l0 -40 544 0 544 0 4 40 4 40 -548 0 -548 0 0 -40z"/>
<path d="M5422 2770 c0 -14 2 -19 5 -12 2 6 2 18 0 25 -3 6 -5 1 -5 -13z"/>
<path d="M5136 2705 c-10 -27 -7 -63 7 -68 8 -3 2 -15 -17 -35 -24 -26 -26
-32 -13 -37 36 -15 91 52 99 120 3 28 1 30 -33 33 -26 2 -38 -1 -43 -13z"/>
<path d="M5707 2699 c12 -12 25 -20 28 -17 3 3 -7 13 -22 23 l-28 17 22 -23z"/>
<path d="M7676 2698 c-10 -39 -7 -58 11 -58 13 0 11 -6 -10 -28 -46 -48 -26
-73 26 -32 29 23 63 101 54 125 -4 9 -19 15 -41 15 -26 0 -35 -5 -40 -22z"/>
<path d="M5630 2681 c5 -11 15 -23 21 -27 6 -3 3 5 -6 20 -20 30 -30 35 -15 7z"/>
<path d="M5780 2680 l-35 -7 32 -2 c17 0 35 4 38 9 3 6 5 9 3 9 -2 -1 -19 -5
-38 -9z"/>
<path d="M5889 2653 l-24 -28 28 24 c25 23 32 31 24 31 -2 0 -14 -12 -28 -27z"/>
<path d="M5478 2625 c6 -11 27 -36 48 -55 36 -33 36 -33 -6 15 -24 28 -46 52
-48 55 -3 3 0 -4 6 -15z"/>
<path d="M5840 2620 c-9 -6 -10 -10 -3 -10 6 0 15 5 18 10 8 12 4 12 -15 0z"/>
<path d="M5731 2609 c13 -8 97 -13 88 -5 -2 2 -26 6 -53 9 -30 3 -43 1 -35 -4z"/>
<path d="M6030 2585 c-13 -14 -47 -39 -75 -55 -27 -16 -45 -30 -39 -30 16 0
96 54 123 84 14 14 22 26 19 26 -2 0 -15 -11 -28 -25z"/>
<path d="M5620 2506 c0 -7 102 -37 108 -32 2 3 -15 10 -38 16 -23 6 -48 14
-56 17 -8 3 -14 3 -14 -1z"/>
<path d="M5798 2473 c6 -2 18 -2 25 0 6 3 1 5 -13 5 -14 0 -19 -2 -12 -5z"/>
</g>
</svg>
